<mxfile host="app.diagrams.net" modified="2023-05-26T16:14:56.231Z" agent="Mozilla/5.0 (X11; Linux x86_64) AppleWebKit/537.36 (KHTML, like Gecko) Chrome/113.0.0.0 Safari/537.36" version="21.3.3" etag="8t_8jNjm0CYV-8pDTF-D" type="github">
  <diagram name="Page-1" id="OaXR6-EXnF-XhEEL02GM">
    <mxGraphModel>
      <root>
        <mxCell id="0" />
        <mxCell id="1" parent="0" />
      </root>
    </mxGraphModel>
  </diagram>
</mxfile>
